<svg width="495" height="394" viewBox="0 0 495 394" fill="none" xmlns="http://www.w3.org/2000/svg">
<g clip-path="url(#clip0)">
<path d="M197.7 267L203.7 272.3" stroke="#FFC910" stroke-width="0.75" stroke-miterlimit="10" stroke-linecap="round" stroke-linejoin="round"/>
<path d="M211 267L217 272.3" stroke="#FFC910" stroke-width="0.75" stroke-miterlimit="10" stroke-linecap="round" stroke-linejoin="round"/>
<path d="M379.4 257V154.9" stroke="#FFC910" stroke-width="0.75" stroke-miterlimit="10" stroke-linecap="round" stroke-linejoin="round"/>
<path d="M390.6 257V154.9" stroke="#FFC910" stroke-width="0.75" stroke-miterlimit="10" stroke-linecap="round" stroke-linejoin="round"/>
<path d="M305.9 247.5H276.9V269.3" stroke="#FFC910" stroke-width="0.75" stroke-miterlimit="10" stroke-linecap="round" stroke-linejoin="round"/>
<path d="M299.5 241.8H270.6V263.7" stroke="#FFC910" stroke-width="0.75" stroke-miterlimit="10" stroke-linecap="round" stroke-linejoin="round"/>
<path d="M203.7 392.9V272.3" stroke="#FFC910" stroke-width="0.75" stroke-miterlimit="10" stroke-linecap="round" stroke-linejoin="round"/>
<path d="M217 392.9V272.3" stroke="#FFC910" stroke-width="0.75" stroke-miterlimit="10" stroke-linecap="round" stroke-linejoin="round"/>
<path d="M444 263.1V387.4H295.5V263.1" stroke="#111111" stroke-width="0.75" stroke-miterlimit="10" stroke-linecap="round" stroke-linejoin="round"/>
<path d="M294.5 263.1H443" stroke="#111111" stroke-width="0.75" stroke-miterlimit="10" stroke-linecap="round" stroke-linejoin="round"/>
<path d="M268.5 228H284" stroke="#111111" stroke-width="0.75" stroke-miterlimit="10" stroke-linecap="round" stroke-linejoin="round"/>
<path d="M268.5 240L294.5 263.1" stroke="#111111" stroke-width="0.75" stroke-miterlimit="10" stroke-linecap="round" stroke-linejoin="round"/>
<path d="M280.3 374.7L294.5 387.4" stroke="#111111" stroke-width="0.75" stroke-miterlimit="10" stroke-linecap="round" stroke-linejoin="round"/>
<path d="M436.1 257L443 263.1" stroke="#111111" stroke-width="0.75" stroke-miterlimit="10" stroke-linecap="round" stroke-linejoin="round"/>
<path d="M453 154.8V257H316.6V149.2" stroke="#111111" stroke-width="0.75" stroke-miterlimit="10" stroke-linecap="round" stroke-linejoin="round"/>
<path d="M280.3 224.8V133.5" stroke="#111111" stroke-width="0.75" stroke-miterlimit="10" stroke-linecap="round" stroke-linejoin="round"/>
<path d="M280.3 224.8L316.6 257" stroke="#111111" stroke-width="0.75" stroke-miterlimit="10" stroke-linecap="round" stroke-linejoin="round"/>
<path d="M466.9 34.3999H322.9V154.9H466.9V34.3999Z" stroke="#111111" stroke-width="0.75" stroke-miterlimit="10" stroke-linecap="round" stroke-linejoin="round"/>
<path d="M284.6 0.399902H428.5" stroke="#111111" stroke-width="0.75" stroke-miterlimit="10" stroke-linecap="round" stroke-linejoin="round"/>
<path d="M284.6 0.399902L322.9 34.3999" stroke="#111111" stroke-width="0.75" stroke-miterlimit="10" stroke-linecap="round" stroke-linejoin="round"/>
<path d="M288.7 124.5L322.9 154.9" stroke="#111111" stroke-width="0.75" stroke-miterlimit="10" stroke-linecap="round" stroke-linejoin="round"/>
<path d="M466.8 34.3999L428.5 0.399902V34.3999" stroke="#111111" stroke-width="0.75" stroke-miterlimit="10" stroke-linecap="round" stroke-linejoin="round"/>
<path d="M280.4 272.3H136.4V392.8H280.4V272.3Z" stroke="#111111" stroke-width="0.75" stroke-miterlimit="10" stroke-linecap="round" stroke-linejoin="round"/>
<path d="M98.1001 358.8V243.5" stroke="#111111" stroke-width="0.75" stroke-miterlimit="10" stroke-linecap="round" stroke-linejoin="round"/>
<path d="M130.4 267L136.4 272.3" stroke="#111111" stroke-width="0.75" stroke-miterlimit="10" stroke-linecap="round" stroke-linejoin="round"/>
<path d="M98.1001 358.8L136.4 392.9" stroke="#111111" stroke-width="0.75" stroke-miterlimit="10" stroke-linecap="round" stroke-linejoin="round"/>
<path d="M268.5 261.8L280.3 272.3" stroke="#111111" stroke-width="0.75" stroke-miterlimit="10" stroke-linecap="round" stroke-linejoin="round"/>
<path d="M268.5 146.5H124.5V267H268.5V146.5Z" stroke="#111111" stroke-width="0.75" stroke-miterlimit="10" stroke-linecap="round" stroke-linejoin="round"/>
<path d="M211.8 112.6C217.9 112.6 224 112.5 230.1 112.5" stroke="#111111" stroke-width="0.75" stroke-miterlimit="10" stroke-linecap="round" stroke-linejoin="round"/>
<path d="M86.2 112.5C122.6 112.5 159 112.5 195.4 112.5" stroke="#111111" stroke-width="0.75" stroke-miterlimit="10" stroke-linecap="round" stroke-linejoin="round"/>
<path d="M86.2 233V171.2" stroke="#111111" stroke-width="0.75" stroke-miterlimit="10" stroke-linecap="round" stroke-linejoin="round"/>
<path d="M86.2 112.5L124.5 146.5" stroke="#111111" stroke-width="0.75" stroke-miterlimit="10" stroke-linecap="round" stroke-linejoin="round"/>
<path d="M86.2 233L124.5 267" stroke="#111111" stroke-width="0.75" stroke-miterlimit="10" stroke-linecap="round" stroke-linejoin="round"/>
<path d="M230.2 112.5L268.5 146.5" stroke="#111111" stroke-width="0.75" stroke-miterlimit="10" stroke-linecap="round" stroke-linejoin="round"/>
<path d="M125.2 146.5L56.7 189.8L17.7 155.8L86.2 112.5" stroke="#111111" stroke-width="0.75" stroke-miterlimit="10" stroke-linecap="round" stroke-linejoin="round"/>
<path d="M284.5 48.7998V53.7998" stroke="#111111" stroke-width="0.75" stroke-miterlimit="10" stroke-linecap="round" stroke-linejoin="round"/>
<path d="M284.5 48.7998L257.1 58.9998L217.7 25.3998C240 16.9998 262.3 8.6998 284.6 0.299805" stroke="#111111" stroke-width="0.75" stroke-miterlimit="10" stroke-linecap="round" stroke-linejoin="round"/>
<path d="M322.8 34.5L284.5 48.8" stroke="#111111" stroke-width="0.75" stroke-miterlimit="10" stroke-linecap="round" stroke-linejoin="round"/>
<path d="M268.1 146.7L322.8 87.7998L284.7 53.7998L229.9 112.7V146.5" stroke="#111111" stroke-width="0.75" stroke-miterlimit="10" stroke-linecap="round" stroke-linejoin="round"/>
<path d="M466.8 52.7999L494 77.0999L466.7 34.3999" stroke="#111111" stroke-width="0.75" stroke-miterlimit="10" stroke-linecap="round" stroke-linejoin="round"/>
<path d="M38.7 61.9C38.7 61.4 38.7 59.2 40.4 57.4C42.8 54.9 46.4 55.7 46.5 55.7C47.1 56.3 48.2 57.5 49.7 58.8C76.4 84.8 107 97.5 119.9 95.7C120.9 95.6 125.3 94.9 131.6 94.6C135.5 94.4 138.8 94.4 141 94.5C143.9 99.5 149.3 102.4 154.9 102C162.4 101.5 166.3 95.3 166.7 94.7C168.3 94.6 177.5 94 184.8 100.7C189.5 105.1 191.1 110.2 191.6 112.5C158.9 112.5 126.1 112.6 93.4 112.6C82.4 105.6 69.6 96 56.9 83C49.8 75.8 43.8 68.6 38.7 61.9Z" fill="#111111"/>
<path d="M169.6 95.9998C167 96.1998 165 95.8998 163.8 95.5998C162.3 95.1998 161.7 94.7998 161.3 94.3998C160.7 93.7998 160.4 92.9998 160.3 90.9998C160.3 90.5998 160.3 90.1998 160.3 89.7998" stroke="#111111" stroke-width="0.75" stroke-miterlimit="10" stroke-linecap="round" stroke-linejoin="round"/>
<path d="M135.5 95.6001C139.1 95.8001 141.8 95.5001 143.2 95.1001C143.7 95.0001 144.5 94.7001 145.2 94.1001C145.4 93.9001 145.8 93.5001 146.2 92.9001C146.6 92.2001 147.1 91.2001 147.5 90.1001" stroke="#111111" stroke-width="0.75" stroke-miterlimit="10" stroke-linecap="round" stroke-linejoin="round"/>
<path d="M195.2 112.5C196.5 112.6 197.8 112.6 199.1 112.7C199.5 113.2 200 114 200.4 115.1C201.5 118.4 200.4 121.4 200.9 121.6C201.2 121.7 202.1 120.4 202.6 118.6C203.5 115.2 202.3 112.2 202.4 112.1C202.5 112.1 203.1 113.4 203.5 115.6C204.4 121 202.8 124.9 203.2 125C203.6 125.1 205.4 122.1 205.9 118.2C206.3 114.8 205.7 112 205.8 112C205.9 112 206.2 113.6 206.5 115.7C207 120 206.5 122.3 206.9 122.4C207.3 122.5 208.3 120.1 208.7 117.7C209.1 115.3 208.7 113.2 208.3 111.9C208.7 112.1 209.2 112.5 209.8 113.1C209.9 113.2 210.4 113.7 210.9 114.5C211.7 115.7 212 116.9 212.3 116.8C212.6 116.7 212.6 115.6 212.5 114.7C212.3 112.4 211 109.8 209.5 109.4C209.3 109.3 209 109.3 208.4 109.1C207.9 109 207.6 108.8 207 108.8C206.8 108.8 206.7 108.8 206.6 108.8C205.9 108.8 205.6 109 205.2 109.1C204.5 109.3 204.5 108.9 203.5 109C202.8 109 202.8 109.2 202.1 109.3C201.2 109.4 200.6 109.2 200.4 109.2C199.4 108.9 198 109.4 195.2 112.5Z" stroke="#111111" stroke-width="0.75" stroke-miterlimit="10" stroke-linecap="round" stroke-linejoin="round"/>
<path d="M45.8 45.6001L58.9001 43.4001L39.9001 6.6001L2.80005 8.1001C3.20005 9.8001 14.3 50.9001 14.3 50.9001C23.9 49.3001 33.5 47.7001 43 46.1001" stroke="#111111" stroke-width="0.75" stroke-miterlimit="10" stroke-linecap="round" stroke-linejoin="round"/>
<path d="M40.5 60.7002C40.3 60.2002 39.9 59.4002 39.3 58.5002C38.1 56.7002 36.8 55.7002 36.4 55.3002C35.1 54.2002 33.6 52.1002 32.5 47.7002" stroke="#111111" stroke-width="0.75" stroke-miterlimit="10" stroke-linecap="round" stroke-linejoin="round"/>
<path d="M43.7001 59.6002C43.5001 58.2002 43.4001 56.3002 44.4001 54.6002C45.3001 53.1002 46.1001 53.3002 46.8001 52.1002C47.9001 50.2002 46.3001 48.7002 45.0001 42.2002C44.7001 40.5002 44.5001 39.2002 44.1001 39.2002C43.5001 39.2002 43.0001 41.7002 43.0001 41.8002C42.7001 43.1002 42.6001 45.2002 43.3001 47.9002" stroke="#111111" stroke-width="0.75" stroke-miterlimit="10" stroke-linecap="round" stroke-linejoin="round"/>
<path d="M160.5 92.8001C160.4 91.7001 160.3 90.7001 160.2 89.6001C161.7 88.6001 164.1 86.6001 166.1 83.5001C168.2 80.3001 168.9 77.2001 169.2 75.4001C169.5 75.1001 169.8 74.7001 170.1 74.2001C172 71.2001 172.3 66.8001 170.7 65.9001C170.3 65.7001 169.6 65.5001 168 66.3001C166.3 62.8001 164.2 60.9001 162.7 59.7001C160.6 58.1001 159.1 57.7001 156.5 55.7001C154.6 54.2001 153.3 52.6001 152.5 51.5001C151.8 52.9001 150.5 54.8001 148.5 56.5001C146 58.5001 144.3 58.7001 142.5 60.5001C141.3 61.7001 140 63.8001 139.6 67.6001C137.7 66.4001 136.9 66.4001 136.5 66.7001C135.1 67.6001 136 72.5001 138.5 75.9001C138.7 76.2001 138.9 76.5001 139.1 76.7001C139.4 78.6001 140.1 82.2001 142.7 85.7001C144.3 87.9001 146.2 89.4001 147.5 90.3001C147.3 90.8001 147.1 91.2001 146.9 91.7001C142.9 92.2001 140.2 92.4001 138.4 92.4001C138.3 92.4001 138.2 92.4001 138 92.4001C135.1 92.4001 132.9 91.9001 131.5 91.4001C130.9 88.2001 130.3 83.8001 130.1 78.5001C129.9 73.3001 130.1 68.5001 130.9 62.6001C131.3 59.5001 132.8 47.5001 141.3 43.3001C145.3 41.3001 149.6 41.7001 152.2 42.2001C154.2 41.4001 158.7 39.9001 163.6 41.4001C169.3 43.1001 172.2 47.9001 174.8 52.3001C178.7 58.8001 179.7 64.8001 180.3 68.7001C181 73.0001 181.5 79.8001 179.9 88.2001C179.5 88.4001 178.7 88.7001 177.8 89.0001C170.8 91.5001 165.1 92.3001 162.6 92.6001C161.7 92.7001 161 92.8001 160.5 92.8001Z" fill="#111111"/>
<path d="M157.9 65.1001C158.5 64.8001 159.4 64.6001 160.4 64.5001C162.8 64.4001 164.6 65.4001 165.3 65.9001" stroke="#111111" stroke-width="0.75" stroke-miterlimit="10" stroke-linecap="round" stroke-linejoin="round"/>
<path d="M150.4 65.1001C149.8 64.8001 148.9 64.6001 147.9 64.5001C145.5 64.4001 143.7 65.4001 143 65.9001" stroke="#111111" stroke-width="0.75" stroke-miterlimit="10" stroke-linecap="round" stroke-linejoin="round"/>
<path d="M161.2 73.8002C162.1 73.7002 163.1 69.7002 161.7 68.8002C161.1 68.4002 160.2 68.6002 159.7 69.1002C158.5 70.3002 160.3 73.9002 161.2 73.8002Z" fill="#111111"/>
<path d="M146.4 73.8C145.5 73.8 144.3 69.8 145.6 68.8C146.1 68.4 147.1 68.5 147.6 69C148.9 70.2 147.3 73.9 146.4 73.8Z" fill="#111111"/>
<path d="M153.5 67.7998C154.2 72.8998 153.1 74.9998 151.7 75.8998C150.8 76.4998 149.5 76.7998 149.5 77.5998C149.4 78.4998 150.9 79.5998 152.3 79.6998C152.9 79.7998 153.5 79.5998 153.8 79.4998" stroke="#111111" stroke-width="0.75" stroke-miterlimit="10" stroke-linecap="round" stroke-linejoin="round"/>
<path d="M151.3 84.7998C152.1 84.9998 153.4 85.1998 154.9 84.8998C157.9 84.2998 159.5 82.2998 159.9 81.7998" stroke="#111111" stroke-width="0.75" stroke-miterlimit="10" stroke-linecap="round" stroke-linejoin="round"/>
<path d="M143.1 86.6001C143.7 87.1001 144.5 87.9001 145.6 88.6001C147.3 89.8001 149.9 91.5001 153.1 91.7001C157.6 92.0001 161.2 89.1001 163.1 87.5001C164.2 86.6001 165 85.8001 165.6 85.1001" stroke="#111111" stroke-width="0.75" stroke-miterlimit="10" stroke-linecap="round" stroke-linejoin="round"/>
<path d="M12.2 18.3999C13.5 23.2999 14.8 28.1999 16.1 33.0999" stroke="#111111" stroke-width="0.75" stroke-miterlimit="10" stroke-linecap="round" stroke-linejoin="round"/>
<path d="M12.3 18.6999C13.9 17.7999 15.8 17.8999 17 18.8999C18.4 20.0999 18.2 22.0999 18.1 22.6999C17.8 25.4999 15.1 26.9999 14.8 27.1999" stroke="#111111" stroke-width="0.75" stroke-miterlimit="10" stroke-linecap="round" stroke-linejoin="round"/>
<path d="M23.2 17.1001C24.2 21.5001 25.1999 26.0001 26.2999 30.4001C27.6999 30.0001 29.1 29.7001 30.4 29.3001" stroke="#111111" stroke-width="0.75" stroke-miterlimit="10" stroke-linecap="round" stroke-linejoin="round"/>
<path d="M23.1001 17.4998L27.2001 16.2998" stroke="#111111" stroke-width="0.75" stroke-miterlimit="10" stroke-linecap="round" stroke-linejoin="round"/>
<path d="M24.7 23.4001L28.5 22.1001" stroke="#111111" stroke-width="0.75" stroke-miterlimit="10" stroke-linecap="round" stroke-linejoin="round"/>
<path d="M32.3999 17.4001C31.5999 19.3001 32.6999 21.7001 34.4999 22.6001C36.8999 23.7001 40.1999 21.9001 40.4999 19.5001C40.7999 17.1001 37.8999 14.7001 35.3999 15.1001C34.0999 15.2001 32.8999 16.1001 32.3999 17.4001Z" stroke="#111111" stroke-width="0.75" stroke-miterlimit="10" stroke-linecap="round" stroke-linejoin="round"/>
<path d="M33.8999 14.3999C35.7999 18.9999 37.7999 23.4999 39.6999 28.0999" stroke="#111111" stroke-width="0.75" stroke-miterlimit="10" stroke-linecap="round" stroke-linejoin="round"/>
<path d="M46.1001 46.4999L56.8001 44.8999L56.2001 43.8999" stroke="#111111" stroke-width="0.75" stroke-miterlimit="10" stroke-linecap="round" stroke-linejoin="round"/>
<path d="M42.9999 47.0002L11.7999 52.8002L0.399902 12.7002H3.9999" stroke="#111111" stroke-width="0.75" stroke-miterlimit="10" stroke-linecap="round" stroke-linejoin="round"/>
<path d="M115.2 138.2L143 124.5L190.7 146.7" stroke="#111111" stroke-width="0.75" stroke-miterlimit="10" stroke-linecap="round" stroke-linejoin="round"/>
<path d="M176.8 139.7C178.8 137.1 183.1 132.5 190.1 130.3C200.2 127.2 212.2 130.7 218.4 138.8C220.6 141.6 221.6 144.5 222.1 146.4" stroke="#111111" stroke-width="0.75" stroke-miterlimit="10" stroke-linecap="round" stroke-linejoin="round"/>
<path d="M305.1 18.6001H363.3L383.2 34.4001" stroke="#111111" stroke-width="0.75" stroke-miterlimit="10" stroke-linecap="round" stroke-linejoin="round"/>
<path d="M375.7 28.3999H418.3C421.3 30.3999 424.2 32.3999 427.2 34.3999" stroke="#111111" stroke-width="0.75" stroke-miterlimit="10" stroke-linecap="round" stroke-linejoin="round"/>
<rect x="349" y="356" width="62" height="20" fill="#111111"/>
<rect x="344.5" y="353.5" width="71" height="26" stroke="black"/>
<rect x="359" y="368" width="1" height="3" fill="white"/>
<rect x="357" y="372" width="5" height="1" fill="white"/>
<rect x="371" y="372" width="12" height="1" fill="white"/>
<rect x="397" y="364" width="1" height="8" fill="white"/>
<rect x="394" y="371" width="1" height="1" fill="white"/>
<rect x="395" y="372" width="2" height="1" fill="white"/>
<rect x="381" y="360" width="1" height="11" fill="white"/>
<rect x="380" y="361" width="1" height="1" fill="white"/>
<rect x="379" y="362" width="1" height="1" fill="white"/>
<rect x="378" y="363" width="1" height="1" fill="white"/>
<rect x="385" y="363" width="1" height="1" transform="rotate(90 385 363)" fill="white"/>
<rect x="384" y="362" width="1" height="1" transform="rotate(90 384 362)" fill="white"/>
<rect x="383" y="361" width="1" height="1" transform="rotate(90 383 361)" fill="white"/>
<rect x="372" y="360" width="1" height="11" fill="white"/>
<rect x="371" y="361" width="1" height="1" fill="white"/>
<rect x="370" y="362" width="1" height="1" fill="white"/>
<rect x="369" y="363" width="1" height="1" fill="white"/>
<rect x="376" y="363" width="1" height="1" transform="rotate(90 376 363)" fill="white"/>
<rect x="375" y="362" width="1" height="1" transform="rotate(90 375 362)" fill="white"/>
<rect x="374" y="361" width="1" height="1" transform="rotate(90 374 361)" fill="white"/>
<rect x="390" y="362" width="15" height="1" fill="white"/>
<rect x="392" y="361" width="11" height="1" fill="white"/>
<rect x="394" y="360" width="7" height="1" fill="white"/>
<rect x="356" y="365" width="7" height="1" fill="white"/>
<rect x="355" y="360" width="9" height="5" fill="white"/>
<rect x="357" y="366" width="5" height="1" fill="white"/>
</g>
<defs>
<clipPath id="clip0">
<rect width="494.4" height="393.2" fill="white"/>
</clipPath>
</defs>
</svg>
